<svg xmlns="http://www.w3.org/2000/svg" xmlns:xlink="http://www.w3.org/1999/xlink" preserveAspectRatio="xMidYMid" width="20" height="13" viewBox="0 0 20 13">
  <defs>
    <style>

      .cls-2 {
        fill: #ffffff;
      }
    </style>
  </defs>
  <path d="M19.985,7.000 C19.985,7.000 1.761,7.000 1.761,7.000 C1.761,7.000 6.995,12.350 6.995,12.350 C6.995,12.350 6.359,13.000 6.359,13.000 C6.359,13.000 0.636,7.150 0.636,7.150 C0.636,7.150 0.636,7.150 0.636,7.150 C0.636,7.150 0.489,7.000 0.489,7.000 C0.489,7.000 0.000,7.000 0.000,7.000 C0.000,7.000 0.000,6.000 0.000,6.000 C0.000,6.000 0.489,6.000 0.489,6.000 C0.489,6.000 0.636,5.850 0.636,5.850 C0.636,5.850 0.636,5.850 0.636,5.850 C0.636,5.850 6.359,-0.000 6.359,-0.000 C6.359,-0.000 6.995,0.650 6.995,0.650 C6.995,0.650 1.761,6.000 1.761,6.000 C1.761,6.000 19.985,6.000 19.985,6.000 C19.985,6.000 19.985,7.000 19.985,7.000 Z" id="path-1" class="cls-2" fill-rule="evenodd"/>
</svg>
