<svg xmlns="http://www.w3.org/2000/svg" xmlns:xlink="http://www.w3.org/1999/xlink" preserveAspectRatio="xMidYMid" width="20" height="13" viewBox="0 0 20 13">
  <defs>
    <style>

      .cls-2 {
        fill: #ffffff;
      }
    </style>
  </defs>
  <path d="M19.511,7.000 C19.511,7.000 19.364,7.150 19.364,7.150 C19.364,7.150 19.364,7.150 19.364,7.150 C19.364,7.150 13.636,13.000 13.636,13.000 C13.636,13.000 13.000,12.350 13.000,12.350 C13.000,12.350 18.238,7.000 18.238,7.000 C18.238,7.000 -0.000,7.000 -0.000,7.000 C-0.000,7.000 -0.000,6.000 -0.000,6.000 C-0.000,6.000 18.238,6.000 18.238,6.000 C18.238,6.000 13.000,0.650 13.000,0.650 C13.000,0.650 13.636,0.000 13.636,0.000 C13.636,0.000 19.364,5.850 19.364,5.850 C19.364,5.850 19.364,5.850 19.364,5.850 C19.364,5.850 19.510,6.000 19.510,6.000 C19.510,6.000 20.000,6.000 20.000,6.000 C20.000,6.000 20.000,7.000 20.000,7.000 C20.000,7.000 19.511,7.000 19.511,7.000 Z" id="path-1" class="cls-2" fill-rule="evenodd"/>
</svg>
