<svg xmlns="http://www.w3.org/2000/svg" xmlns:xlink="http://www.w3.org/1999/xlink" preserveAspectRatio="xMidYMid" width="756" height="221" viewBox="0 0 756 221">
  <defs>
    <style>

      .cls-2 {
        fill: #ffffff;
      }
    </style>
  </defs>
  <path d="M678.810,150.934 C678.810,150.934 678.810,149.253 678.810,149.253 C678.810,149.253 689.851,149.253 689.851,149.253 C689.851,149.253 689.851,67.163 689.851,67.163 C689.851,67.163 678.810,67.163 678.810,67.163 C678.810,67.163 678.810,65.483 678.810,65.483 C678.810,65.483 750.579,65.483 750.579,65.483 C750.579,65.483 750.579,86.005 750.579,86.005 C750.579,86.005 749.019,86.005 749.019,86.005 C748.617,84.646 747.939,82.906 746.978,80.785 C746.018,78.666 744.677,76.605 742.958,74.604 C741.236,72.605 739.016,70.865 736.297,69.383 C733.576,67.904 730.255,67.163 726.336,67.163 C726.336,67.163 707.253,67.163 707.253,67.163 C707.253,67.163 707.253,104.248 707.253,104.248 C707.253,104.248 713.974,104.248 713.974,104.248 C716.933,104.248 719.435,103.828 721.475,102.988 C723.515,102.147 725.214,100.947 726.576,99.387 C727.935,97.827 729.055,95.948 729.936,93.746 C730.816,91.547 731.536,89.086 732.097,86.365 C732.097,86.365 733.657,86.365 733.657,86.365 C733.657,86.365 733.657,123.690 733.657,123.690 C733.657,123.690 732.097,123.690 732.097,123.690 C731.536,121.370 730.876,119.130 730.116,116.969 C729.355,114.809 728.335,112.909 727.056,111.269 C725.775,109.630 724.194,108.328 722.315,107.368 C720.434,106.408 718.094,105.928 715.294,105.928 C715.294,105.928 707.253,105.928 707.253,105.928 C707.253,105.928 707.253,149.253 707.253,149.253 C707.253,149.253 726.936,149.253 726.936,149.253 C730.615,149.253 733.936,148.634 736.897,147.393 C739.856,146.154 742.478,144.413 744.758,142.172 C747.038,139.933 748.938,137.312 750.459,134.311 C751.978,131.311 753.139,128.091 753.939,124.650 C753.939,124.650 755.499,124.650 755.499,124.650 C755.499,124.650 755.499,150.934 755.499,150.934 C755.499,150.934 678.810,150.934 678.810,150.934 ZM659.007,148.173 C659.007,148.173 656.847,148.173 656.847,148.173 C656.686,147.213 656.226,146.514 655.467,146.073 C654.706,145.634 653.847,145.413 652.887,145.413 C650.966,145.413 649.146,145.794 647.426,146.553 C645.704,147.314 643.844,148.134 641.845,149.013 C639.844,149.895 637.544,150.714 634.944,151.474 C632.344,152.233 629.202,152.614 625.523,152.614 C619.682,152.614 614.041,151.474 608.601,149.193 C603.159,146.913 598.379,143.793 594.259,139.832 C590.138,135.872 586.837,131.212 584.358,125.850 C581.877,120.491 580.638,114.689 580.638,108.448 C580.638,101.649 582.018,95.487 584.778,89.966 C587.539,84.445 591.079,79.725 595.400,75.804 C599.720,71.885 604.539,68.864 609.861,66.743 C615.181,64.624 620.402,63.563 625.523,63.563 C627.924,63.563 630.243,63.803 632.484,64.283 C634.723,64.763 636.805,65.264 638.725,65.783 C640.645,66.304 642.365,66.803 643.886,67.283 C645.404,67.763 646.685,68.003 647.726,68.003 C648.846,68.003 649.646,67.823 650.126,67.463 C650.606,67.103 651.045,66.443 651.446,65.483 C651.446,65.483 653.487,65.483 653.487,65.483 C653.487,65.483 653.487,89.966 653.487,89.966 C653.487,89.966 651.687,89.966 651.687,89.966 C649.605,82.126 646.485,76.025 642.325,71.664 C638.164,67.304 632.604,65.164 625.643,65.243 C620.123,65.243 615.682,66.304 612.322,68.423 C608.961,70.544 606.381,73.304 604.581,76.704 C602.780,80.106 601.599,83.986 601.040,88.346 C600.480,92.708 600.200,97.127 600.200,101.607 C600.200,101.607 600.200,112.049 600.200,112.049 C600.200,119.330 600.680,125.451 601.640,130.411 C602.600,135.373 604.101,139.373 606.141,142.412 C608.181,145.454 610.821,147.633 614.062,148.953 C617.302,150.274 621.161,150.934 625.643,150.934 C629.322,150.934 632.244,150.274 634.404,148.953 C636.565,147.633 638.224,145.833 639.385,143.553 C640.544,141.272 641.285,138.572 641.605,135.452 C641.924,132.331 642.085,128.931 642.085,125.250 C642.085,125.250 642.085,120.690 642.085,120.690 C642.085,120.690 629.724,120.690 629.724,120.690 C629.724,120.690 629.724,119.010 629.724,119.010 C629.724,119.010 666.808,119.010 666.808,119.010 C666.808,119.010 666.808,120.690 666.808,120.690 C666.808,120.690 659.007,120.690 659.007,120.690 C659.007,120.690 659.007,148.173 659.007,148.173 ZM531.793,149.253 C531.793,149.253 542.954,149.253 542.954,149.253 C542.954,149.253 529.033,117.089 529.033,117.089 C529.033,117.089 500.229,117.089 500.229,117.089 C500.229,117.089 486.907,149.253 486.907,149.253 C486.907,149.253 497.589,149.253 497.589,149.253 C497.589,149.253 497.589,150.934 497.589,150.934 C497.589,150.934 474.906,150.934 474.906,150.934 C474.906,150.934 474.906,149.253 474.906,149.253 C474.906,149.253 484.987,149.253 484.987,149.253 C484.987,149.253 520.752,62.123 520.752,62.123 C520.752,62.123 523.992,62.123 523.992,62.123 C523.992,62.123 561.797,149.253 561.797,149.253 C561.797,149.253 572.118,149.253 572.118,149.253 C572.118,149.253 572.118,150.934 572.118,150.934 C572.118,150.934 531.793,150.934 531.793,150.934 C531.793,150.934 531.793,149.253 531.793,149.253 ZM514.271,82.645 C514.271,82.645 500.829,115.409 500.829,115.409 C500.829,115.409 528.433,115.409 528.433,115.409 C528.433,115.409 514.271,82.645 514.271,82.645 ZM458.104,123.450 C458.104,124.731 458.063,126.351 457.984,128.311 C457.903,130.272 457.583,132.331 457.024,134.492 C456.463,136.652 455.623,138.812 454.503,140.972 C453.382,143.133 451.743,145.073 449.583,146.793 C447.423,148.514 444.702,149.914 441.422,150.994 C438.140,152.074 434.101,152.614 429.300,152.614 C421.539,152.614 415.298,151.753 410.578,150.034 C405.856,148.314 402.237,146.073 399.717,143.313 C397.196,140.552 395.535,137.413 394.736,133.892 C393.935,130.372 393.219,126.600 393.219,123.000 C393.219,123.000 393.219,1.000 393.219,1.000 C393.219,1.000 382.219,1.000 382.219,1.000 C382.219,1.000 382.219,0.000 382.219,0.000 C382.219,0.000 422.219,0.000 422.219,0.000 C422.219,0.000 422.219,1.000 422.219,1.000 C422.219,1.000 411.219,1.000 411.219,1.000 C411.219,1.000 411.219,121.000 411.219,121.000 C411.219,124.762 411.118,128.472 411.478,132.031 C411.838,135.592 412.678,138.773 413.998,141.572 C415.319,144.374 417.278,146.634 419.879,148.353 C422.478,150.075 425.979,150.934 430.380,150.934 C434.701,150.934 438.320,150.435 441.242,149.433 C444.161,148.434 446.582,147.114 448.503,145.473 C450.423,143.834 451.902,141.992 452.943,139.952 C453.982,137.912 454.743,135.872 455.223,133.831 C455.704,131.791 455.983,129.871 456.064,128.071 C456.142,126.270 456.184,124.770 456.184,123.570 C456.184,123.570 456.219,1.000 456.219,1.000 C456.219,1.000 445.219,1.000 445.219,1.000 C445.219,1.000 445.219,0.000 445.219,0.000 C445.219,0.000 469.219,0.000 469.219,0.000 C469.219,0.000 469.219,1.000 469.219,1.000 C469.219,1.000 458.219,1.000 458.219,1.000 C458.219,1.000 458.104,123.450 458.104,123.450 ZM363.172,148.173 C363.172,148.173 361.012,148.173 361.012,148.173 C360.850,147.213 360.391,146.514 359.631,146.073 C358.870,145.634 358.011,145.413 357.051,145.413 C355.131,145.413 353.310,145.794 351.590,146.553 C349.869,147.314 348.009,148.134 346.010,149.013 C344.009,149.895 341.708,150.714 339.109,151.474 C336.508,152.233 333.367,152.614 329.688,152.614 C323.846,152.614 318.206,151.474 312.766,149.193 C307.324,146.913 302.544,143.793 298.424,139.832 C294.302,135.872 291.002,131.212 288.523,125.850 C286.042,120.491 284.802,114.689 284.802,108.448 C284.802,101.649 286.182,95.487 288.943,89.966 C291.703,84.445 295.243,79.725 299.564,75.804 C303.885,71.885 308.704,68.864 314.026,66.743 C319.346,64.624 324.566,63.563 329.688,63.563 C332.088,63.563 334.408,63.803 336.649,64.283 C338.888,64.763 340.969,65.264 342.889,65.783 C344.810,66.304 346.529,66.803 348.050,67.283 C349.569,67.763 350.850,68.003 351.890,68.003 C353.010,68.003 353.811,67.823 354.291,67.463 C354.771,67.103 355.210,66.443 355.611,65.483 C355.611,65.483 357.651,65.483 357.651,65.483 C357.651,65.483 357.651,89.966 357.651,89.966 C357.651,89.966 355.851,89.966 355.851,89.966 C353.770,82.126 350.649,76.025 346.490,71.664 C342.329,67.304 336.769,65.164 329.808,65.243 C324.287,65.243 319.847,66.304 316.486,68.423 C313.126,70.544 310.545,73.304 308.745,76.704 C306.945,80.106 305.764,83.986 305.205,88.346 C304.644,92.708 304.365,97.127 304.365,101.607 C304.365,101.607 304.365,112.049 304.365,112.049 C304.365,119.330 304.845,125.451 305.805,130.411 C306.765,135.373 308.265,139.373 310.305,142.412 C312.346,145.454 314.986,147.633 318.226,148.953 C321.467,150.274 325.326,150.934 329.808,150.934 C333.487,150.934 336.409,150.274 338.569,148.953 C340.729,147.633 342.389,145.833 343.549,143.553 C344.708,141.272 345.449,138.572 345.770,135.452 C346.089,132.331 346.250,128.931 346.250,125.250 C346.250,125.250 346.250,120.690 346.250,120.690 C346.250,120.690 333.888,120.690 333.888,120.690 C333.888,120.690 333.888,119.010 333.888,119.010 C333.888,119.010 370.973,119.010 370.973,119.010 C370.973,119.010 370.973,120.690 370.973,120.690 C370.973,120.690 363.172,120.690 363.172,120.690 C363.172,120.690 363.172,148.173 363.172,148.173 ZM258.759,150.934 C258.759,150.934 255.519,150.934 255.519,150.934 C255.519,150.934 201.512,74.004 201.512,74.004 C201.512,74.004 201.272,74.004 201.272,74.004 C201.272,74.004 201.272,149.253 201.272,149.253 C201.272,149.253 212.313,149.253 212.313,149.253 C212.313,149.253 212.313,150.934 212.313,150.934 C212.313,150.934 188.310,150.934 188.310,150.934 C188.310,150.934 188.310,149.253 188.310,149.253 C188.310,149.253 199.352,149.253 199.352,149.253 C199.352,149.253 199.352,67.163 199.352,67.163 C199.352,67.163 188.310,67.163 188.310,67.163 C188.310,67.163 188.310,65.483 188.310,65.483 C188.310,65.483 216.634,65.483 216.634,65.483 C216.634,65.483 256.599,122.610 256.599,122.610 C256.599,122.610 256.839,122.610 256.839,122.610 C256.839,122.610 256.839,67.163 256.839,67.163 C256.839,67.163 245.798,67.163 245.798,67.163 C245.798,67.163 245.798,65.483 245.798,65.483 C245.798,65.483 269.801,65.483 269.801,65.483 C269.801,65.483 269.801,67.163 269.801,67.163 C269.801,67.163 258.759,67.163 258.759,67.163 C258.759,67.163 258.759,150.934 258.759,150.934 ZM141.026,149.253 C141.026,149.253 152.187,149.253 152.187,149.253 C152.187,149.253 138.266,117.089 138.266,117.089 C138.266,117.089 109.462,117.089 109.462,117.089 C109.462,117.089 96.140,149.253 96.140,149.253 C96.140,149.253 106.822,149.253 106.822,149.253 C106.822,149.253 106.822,150.934 106.822,150.934 C106.822,150.934 84.139,150.934 84.139,150.934 C84.139,150.934 84.139,149.253 84.139,149.253 C84.139,149.253 94.220,149.253 94.220,149.253 C94.220,149.253 129.985,62.123 129.985,62.123 C129.985,62.123 133.225,62.123 133.225,62.123 C133.225,62.123 171.030,149.253 171.030,149.253 C171.030,149.253 181.351,149.253 181.351,149.253 C181.351,149.253 181.351,150.934 181.351,150.934 C181.351,150.934 141.026,150.934 141.026,150.934 C141.026,150.934 141.026,149.253 141.026,149.253 ZM123.504,82.645 C123.504,82.645 110.062,115.409 110.062,115.409 C110.062,115.409 137.666,115.409 137.666,115.409 C137.666,115.409 123.504,82.645 123.504,82.645 ZM0.219,220.000 C0.219,220.000 11.219,220.000 11.219,220.000 C11.219,220.000 11.052,67.163 11.052,67.163 C11.052,67.163 0.010,67.163 0.010,67.163 C0.010,67.163 0.010,65.483 0.010,65.483 C0.010,65.483 39.495,65.483 39.495,65.483 C39.495,65.483 39.495,67.163 39.495,67.163 C39.495,67.163 28.454,67.163 28.454,67.163 C28.454,67.163 29.219,220.000 29.219,220.000 C29.219,220.000 48.219,220.000 48.219,220.000 C50.859,220.000 54.537,219.881 57.219,219.000 C59.899,218.120 61.437,215.593 63.798,213.553 C66.157,211.512 68.278,208.872 70.159,205.632 C72.038,202.391 73.178,198.641 74.219,194.000 C74.219,194.000 76.219,194.000 76.219,194.000 C76.219,194.000 76.219,221.000 76.219,221.000 C76.219,221.000 0.219,221.000 0.219,221.000 C0.219,221.000 0.219,220.000 0.219,220.000 Z" id="path-1" class="cls-2" fill-rule="evenodd"/>
</svg>
