<svg xmlns="http://www.w3.org/2000/svg" xmlns:xlink="http://www.w3.org/1999/xlink" preserveAspectRatio="xMidYMid" width="124" height="60" viewBox="0 0 124 60">
  <defs>
    <style>

      .cls-2 {
        fill: #ffffff;
      }
    </style>
  </defs>
  <path d="M115.048,36.000 C115.048,36.000 101.875,0.000 101.875,0.000 C101.875,0.000 106.928,0.000 106.928,0.000 C106.928,0.000 117.162,28.131 117.162,28.131 C117.162,28.131 118.665,31.967 118.665,31.967 C119.118,32.984 119.578,33.713 120.047,34.156 C120.516,34.598 121.170,34.886 122.012,35.016 C122.012,35.016 124.000,35.213 124.000,35.213 C124.000,35.213 124.000,36.000 124.000,36.000 C124.000,36.000 115.048,36.000 115.048,36.000 ZM100.963,36.000 C100.963,36.000 100.963,35.213 100.963,35.213 C101.351,35.213 101.698,35.206 102.006,35.188 C102.313,35.172 102.871,35.099 103.679,34.967 C104.487,34.837 105.069,34.664 105.425,34.451 C105.780,34.238 105.959,33.787 105.959,33.098 C105.959,32.378 105.732,31.345 105.279,30.000 C105.279,30.000 103.534,24.787 103.534,24.787 C103.534,24.787 94.416,24.787 94.416,24.787 C94.416,24.787 92.912,29.902 92.912,29.902 C92.589,31.082 92.427,32.016 92.427,32.705 C92.427,33.460 92.613,33.984 92.985,34.279 C93.356,34.574 93.834,34.779 94.416,34.893 C94.998,35.009 95.563,35.083 96.113,35.115 C96.663,35.148 97.196,35.181 97.714,35.213 C97.714,35.213 97.714,36.000 97.714,36.000 C97.714,36.000 83.989,36.000 83.989,36.000 C83.989,36.000 83.989,35.213 83.989,35.213 C83.989,35.213 86.867,35.016 86.867,35.016 C87.940,34.886 88.752,34.615 89.305,34.205 C89.858,33.795 90.273,33.279 90.550,32.656 C90.826,32.033 91.135,31.296 91.476,30.443 C91.817,29.590 92.102,28.820 92.330,28.131 C92.330,28.131 100.992,1.827 100.992,1.827 C100.992,1.827 113.497,36.000 113.497,36.000 C113.497,36.000 100.963,36.000 100.963,36.000 ZM98.878,11.656 C98.878,11.656 94.755,23.754 94.755,23.754 C94.755,23.754 103.146,23.754 103.146,23.754 C103.146,23.754 98.878,11.656 98.878,11.656 ZM86.228,56.165 C86.228,56.165 86.228,49.806 86.228,49.806 C86.228,49.806 87.615,49.806 87.615,49.806 C87.615,49.806 87.615,56.193 87.615,56.193 C87.615,58.407 86.060,59.863 83.749,59.863 C81.424,59.863 79.841,58.407 79.841,56.193 C79.841,56.193 79.841,49.806 79.841,49.806 C79.841,49.806 81.228,49.806 81.228,49.806 C81.228,49.806 81.228,56.179 81.228,56.179 C81.228,57.706 82.222,58.589 83.735,58.589 C85.248,58.589 86.228,57.706 86.228,56.165 ZM54.347,0.147 C54.347,0.147 66.438,0.147 66.438,0.147 C66.438,0.147 66.438,0.935 66.438,0.935 C66.438,0.935 63.237,1.082 63.237,1.082 C62.267,1.180 61.604,1.426 61.248,1.820 C60.892,2.213 60.666,2.951 60.569,4.033 C60.569,4.033 60.472,6.295 60.472,6.295 C60.472,6.295 60.472,35.016 60.472,35.016 C60.472,35.016 64.643,34.869 64.643,34.869 C66.583,34.869 68.515,33.967 70.439,32.164 C72.362,30.361 74.060,28.279 75.531,25.918 C77.002,23.557 78.336,21.066 79.532,18.443 C79.532,18.443 80.308,18.443 80.308,18.443 C80.308,18.443 80.308,36.000 80.308,36.000 C80.308,36.000 54.347,36.000 54.347,36.000 C54.347,36.000 54.347,0.147 54.347,0.147 ZM42.382,35.213 C42.641,35.213 43.005,35.206 43.474,35.188 C43.942,35.172 44.654,35.107 45.608,34.992 C46.561,34.877 47.248,34.607 47.669,34.180 C48.089,33.755 48.348,33.033 48.445,32.016 C48.445,32.016 48.542,29.754 48.542,29.754 C48.542,29.754 48.542,6.393 48.542,6.393 C48.542,6.393 48.445,4.131 48.445,4.131 C48.348,3.082 48.130,2.353 47.790,1.943 C47.451,1.533 46.925,1.279 46.214,1.180 C45.502,1.082 44.888,1.025 44.371,1.008 C43.853,0.992 43.384,0.968 42.964,0.935 C42.964,0.935 42.964,0.147 42.964,0.147 C42.964,0.147 52.892,0.147 52.892,0.147 C52.892,0.147 52.892,36.000 52.892,36.000 C52.892,36.000 42.382,36.000 42.382,36.000 C42.382,36.000 42.382,35.213 42.382,35.213 ZM45.245,52.663 C45.245,53.924 44.559,55.017 43.480,55.381 C43.480,55.381 43.480,55.409 43.480,55.409 C43.480,55.409 43.592,55.549 43.760,55.857 C43.760,55.857 45.862,59.695 45.862,59.695 C45.862,59.695 44.293,59.695 44.293,59.695 C44.293,59.695 42.206,55.759 42.206,55.759 C42.206,55.759 40.090,55.759 40.090,55.759 C40.090,55.759 40.090,59.695 40.090,59.695 C40.090,59.695 38.704,59.695 38.704,59.695 C38.704,59.695 38.704,49.806 38.704,49.806 C38.704,49.806 41.841,49.806 41.841,49.806 C42.794,49.806 43.270,49.890 43.676,50.072 C44.629,50.492 45.245,51.403 45.245,52.663 ZM41.729,51.011 C41.729,51.011 40.090,51.011 40.090,51.011 C40.090,51.011 40.090,54.554 40.090,54.554 C40.090,54.554 42.080,54.554 42.080,54.554 C43.158,54.554 43.844,53.826 43.844,52.734 C43.844,52.019 43.536,51.445 42.920,51.179 C42.668,51.067 42.360,51.011 41.729,51.011 ZM12.158,0.147 C12.158,0.147 37.295,0.147 37.295,0.147 C37.295,0.147 37.295,14.705 37.295,14.705 C37.295,14.705 36.519,14.705 36.519,14.705 C34.870,11.033 32.865,7.943 30.506,5.434 C28.145,2.926 26.165,1.591 24.565,1.426 C22.964,1.263 21.614,1.164 20.515,1.131 C19.415,1.099 18.688,1.082 18.332,1.082 C18.332,1.082 17.896,1.082 17.896,1.082 C17.896,1.082 17.799,17.213 17.799,17.213 C17.799,17.213 19.836,17.115 19.836,17.115 C21.711,16.918 23.126,16.025 24.080,14.434 C25.033,12.844 25.510,10.967 25.510,8.803 C25.510,8.803 26.432,8.803 26.432,8.803 C26.432,8.803 26.432,26.705 26.432,26.705 C26.432,26.705 25.510,26.705 25.510,26.705 C25.510,24.509 25.033,22.591 24.080,20.951 C23.126,19.312 21.711,18.393 19.836,18.197 C19.836,18.197 17.799,18.098 17.799,18.098 C17.799,18.098 17.799,35.016 17.799,35.016 C19.157,34.984 20.547,34.960 21.970,34.943 C23.392,34.926 24.896,34.812 26.480,34.598 C28.064,34.385 30.021,32.763 32.349,29.730 C34.677,26.697 36.390,23.574 37.489,20.361 C37.489,20.361 38.265,20.361 38.265,20.361 C38.265,20.361 38.265,36.000 38.265,36.000 C38.265,36.000 12.158,36.000 12.158,36.000 C12.158,36.000 12.158,0.147 12.158,0.147 ZM0.145,35.213 C0.565,35.213 1.050,35.188 1.600,35.139 C2.150,35.090 2.772,35.025 3.468,34.943 C4.163,34.861 4.696,34.615 5.068,34.205 C5.439,33.795 5.674,33.066 5.771,32.016 C5.771,32.016 5.868,29.754 5.868,29.754 C5.868,29.754 5.868,6.443 5.868,6.443 C5.868,6.443 5.771,4.180 5.771,4.180 C5.674,3.131 5.432,2.394 5.044,1.967 C4.656,1.541 4.114,1.279 3.419,1.180 C2.723,1.082 2.093,1.025 1.528,1.008 C0.962,0.992 0.452,0.968 -0.000,0.935 C-0.000,0.935 -0.000,0.147 -0.000,0.147 C-0.000,0.147 10.703,0.147 10.703,0.147 C10.703,0.147 10.703,36.000 10.703,36.000 C10.703,36.000 0.145,36.000 0.145,36.000 C0.145,36.000 0.145,35.213 0.145,35.213 ZM2.500,54.000 C3.328,54.000 4.000,54.672 4.000,55.500 C4.000,56.328 3.328,57.000 2.500,57.000 C1.672,57.000 1.000,56.328 1.000,55.500 C1.000,54.672 1.672,54.000 2.500,54.000 ZM21.974,49.638 C23.248,49.638 24.579,50.002 25.573,50.843 C25.573,50.843 24.873,51.865 24.873,51.865 C24.215,51.305 23.080,50.899 22.072,50.899 C19.760,50.899 18.360,52.608 18.360,54.709 C18.360,56.992 19.929,58.589 21.988,58.589 C23.052,58.589 24.075,58.098 24.789,57.356 C24.789,57.356 24.789,55.927 24.789,55.927 C24.789,55.927 23.192,55.927 23.192,55.927 C23.192,55.927 23.192,54.723 23.192,54.723 C23.192,54.723 26.064,54.723 26.064,54.723 C26.064,54.723 26.064,59.695 26.064,59.695 C26.064,59.695 24.845,59.695 24.845,59.695 C24.845,59.695 24.845,59.079 24.845,59.079 C24.845,58.869 24.859,58.659 24.859,58.659 C24.859,58.659 24.831,58.659 24.831,58.659 C24.159,59.359 23.010,59.863 21.792,59.863 C19.130,59.863 16.931,57.762 16.931,54.737 C16.931,51.879 19.088,49.638 21.974,49.638 ZM62.397,49.638 C65.338,49.638 67.467,51.837 67.467,54.681 C67.467,57.594 65.338,59.863 62.397,59.863 C59.455,59.863 57.312,57.594 57.312,54.681 C57.312,51.837 59.455,49.638 62.397,49.638 ZM62.397,58.589 C64.498,58.589 66.039,56.894 66.039,54.681 C66.039,52.537 64.498,50.899 62.397,50.899 C60.281,50.899 58.741,52.537 58.741,54.681 C58.741,56.894 60.281,58.589 62.397,58.589 ZM107.343,52.902 C107.343,54.779 106.054,56.039 104.247,56.039 C104.247,56.039 102.006,56.039 102.006,56.039 C102.006,56.039 102.006,59.695 102.006,59.695 C102.006,59.695 100.619,59.695 100.619,59.695 C100.619,59.695 100.619,49.806 100.619,49.806 C100.619,49.806 104.247,49.806 104.247,49.806 C106.054,49.806 107.343,51.025 107.343,52.902 ZM102.006,51.011 C102.006,51.011 102.006,54.835 102.006,54.835 C102.006,54.835 104.023,54.835 104.023,54.835 C105.200,54.835 105.942,54.092 105.942,52.902 C105.942,51.725 105.200,51.011 104.037,51.011 C104.037,51.011 102.006,51.011 102.006,51.011 ZM121.500,54.000 C122.328,54.000 123.000,54.672 123.000,55.500 C123.000,56.328 122.328,57.000 121.500,57.000 C120.672,57.000 120.000,56.328 120.000,55.500 C120.000,54.672 120.672,54.000 121.500,54.000 Z" id="path-1" class="cls-2" fill-rule="evenodd"/>
</svg>
