<svg xmlns="http://www.w3.org/2000/svg" xmlns:xlink="http://www.w3.org/1999/xlink" preserveAspectRatio="xMidYMid" width="17" height="32" viewBox="0 0 17 32">
  <defs>
    <style>

      .cls-2 {
        fill: #da3e3e;
      }
    </style>
  </defs>
  <path d="M17.000,16.000 C17.000,16.000 16.150,16.842 16.150,16.842 C16.150,16.842 16.150,16.842 16.150,16.842 C16.150,16.842 0.850,32.000 0.850,32.000 C0.850,32.000 -0.000,31.158 -0.000,31.158 C-0.000,31.158 15.300,16.000 15.300,16.000 C15.300,16.000 -0.000,0.842 -0.000,0.842 C-0.000,0.842 0.850,0.000 0.850,0.000 C0.850,0.000 16.150,15.158 16.150,15.158 C16.150,15.158 16.150,15.158 16.150,15.158 C16.150,15.158 17.000,16.000 17.000,16.000 Z" id="path-1" class="cls-2" fill-rule="evenodd"/>
</svg>
