<svg xmlns="http://www.w3.org/2000/svg" xmlns:xlink="http://www.w3.org/1999/xlink" preserveAspectRatio="xMidYMid" width="17" height="32" viewBox="0 0 17 32">
  <defs>
    <style>

      .cls-2 {
        fill: #da3e3e;
      }
    </style>
  </defs>
  <path d="M17.000,31.158 C17.000,31.158 16.150,32.000 16.150,32.000 C16.150,32.000 0.850,16.842 0.850,16.842 C0.850,16.842 0.850,16.842 0.850,16.842 C0.850,16.842 0.000,16.000 0.000,16.000 C0.000,16.000 0.850,15.158 0.850,15.158 C0.850,15.158 0.850,15.158 0.850,15.158 C0.850,15.158 16.150,0.000 16.150,0.000 C16.150,0.000 17.000,0.842 17.000,0.842 C17.000,0.842 1.700,16.000 1.700,16.000 C1.700,16.000 17.000,31.158 17.000,31.158 Z" id="path-1" class="cls-2" fill-rule="evenodd"/>
</svg>
